<mxfile host="app.diagrams.net" modified="2021-11-24T03:01:35.927Z" agent="5.0 (Macintosh; Intel Mac OS X 10_14_0) AppleWebKit/537.36 (KHTML, like Gecko) Chrome/95.0.4638.69 Safari/537.36" etag="DQHKkDXVepzN4l4_WHa3" version="15.8.2" type="github">
  <diagram id="R2lEEEUBdFMjLlhIrx00" name="Page-1">
    <mxGraphModel dx="748" dy="555" grid="1" gridSize="10" guides="1" tooltips="1" connect="1" arrows="1" fold="1" page="1" pageScale="1" pageWidth="850" pageHeight="1100" math="0" shadow="0" extFonts="Permanent Marker^https://fonts.googleapis.com/css?family=Permanent+Marker">
      <root>
        <mxCell id="0" />
        <mxCell id="1" parent="0" />
        <mxCell id="C-vyLk0tnHw3VtMMgP7b-12" value="" style="edgeStyle=entityRelationEdgeStyle;endArrow=ERzeroToMany;startArrow=ERone;endFill=1;startFill=0;" parent="1" target="C-vyLk0tnHw3VtMMgP7b-17" edge="1">
          <mxGeometry width="100" height="100" relative="1" as="geometry">
            <mxPoint x="700" y="165" as="sourcePoint" />
            <mxPoint x="460" y="205" as="targetPoint" />
          </mxGeometry>
        </mxCell>
        <mxCell id="AP_lhbo0x5OcAhG_kdzt-1" value="Data Collection" style="swimlane;" vertex="1" parent="1">
          <mxGeometry y="160" width="200" height="110" as="geometry">
            <mxRectangle x="20" y="160" width="120" height="23" as="alternateBounds" />
          </mxGeometry>
        </mxCell>
        <mxCell id="AP_lhbo0x5OcAhG_kdzt-2" value="Smart Watch" style="rounded=0;whiteSpace=wrap;html=1;" vertex="1" parent="AP_lhbo0x5OcAhG_kdzt-1">
          <mxGeometry x="40" y="30" width="100" height="30" as="geometry" />
        </mxCell>
        <mxCell id="AP_lhbo0x5OcAhG_kdzt-3" value="Pectoral Girdle" style="rounded=0;whiteSpace=wrap;html=1;" vertex="1" parent="AP_lhbo0x5OcAhG_kdzt-1">
          <mxGeometry x="40" y="70" width="100" height="30" as="geometry" />
        </mxCell>
        <mxCell id="AP_lhbo0x5OcAhG_kdzt-4" value="User Terminal" style="swimlane;" vertex="1" parent="1">
          <mxGeometry x="280" y="160" width="200" height="110" as="geometry">
            <mxRectangle x="200" y="160" width="110" height="23" as="alternateBounds" />
          </mxGeometry>
        </mxCell>
        <mxCell id="AP_lhbo0x5OcAhG_kdzt-5" value="Mobile" style="rounded=0;whiteSpace=wrap;html=1;" vertex="1" parent="AP_lhbo0x5OcAhG_kdzt-4">
          <mxGeometry x="45" y="30" width="100" height="30" as="geometry" />
        </mxCell>
        <mxCell id="AP_lhbo0x5OcAhG_kdzt-6" value="Personal Computer" style="rounded=0;whiteSpace=wrap;html=1;" vertex="1" parent="AP_lhbo0x5OcAhG_kdzt-4">
          <mxGeometry x="45" y="70" width="100" height="30" as="geometry" />
        </mxCell>
        <mxCell id="AP_lhbo0x5OcAhG_kdzt-7" value="" style="endArrow=classic;html=1;rounded=0;exitX=1;exitY=0.5;exitDx=0;exitDy=0;entryX=0;entryY=0.5;entryDx=0;entryDy=0;" edge="1" parent="1" source="AP_lhbo0x5OcAhG_kdzt-1" target="AP_lhbo0x5OcAhG_kdzt-4">
          <mxGeometry width="50" height="50" relative="1" as="geometry">
            <mxPoint x="360" y="310" as="sourcePoint" />
            <mxPoint x="410" y="260" as="targetPoint" />
          </mxGeometry>
        </mxCell>
        <mxCell id="AP_lhbo0x5OcAhG_kdzt-8" value="Hospital" style="swimlane;" vertex="1" parent="1">
          <mxGeometry x="550" y="340" width="160" height="120" as="geometry">
            <mxRectangle x="380" y="160" width="80" height="23" as="alternateBounds" />
          </mxGeometry>
        </mxCell>
        <mxCell id="AP_lhbo0x5OcAhG_kdzt-9" value="Computing site" style="rounded=0;whiteSpace=wrap;html=1;" vertex="1" parent="AP_lhbo0x5OcAhG_kdzt-8">
          <mxGeometry x="35" y="30" width="90" height="30" as="geometry" />
        </mxCell>
        <mxCell id="AP_lhbo0x5OcAhG_kdzt-10" value="Doctor Terminal" style="rounded=0;whiteSpace=wrap;html=1;" vertex="1" parent="AP_lhbo0x5OcAhG_kdzt-8">
          <mxGeometry x="35" y="70" width="90" height="30" as="geometry" />
        </mxCell>
        <mxCell id="AP_lhbo0x5OcAhG_kdzt-11" value="" style="endArrow=classic;html=1;rounded=0;exitX=0.5;exitY=1;exitDx=0;exitDy=0;entryX=0.5;entryY=0;entryDx=0;entryDy=0;" edge="1" parent="1" source="AP_lhbo0x5OcAhG_kdzt-4" target="AP_lhbo0x5OcAhG_kdzt-13">
          <mxGeometry width="50" height="50" relative="1" as="geometry">
            <mxPoint x="360" y="310" as="sourcePoint" />
            <mxPoint x="410" y="260" as="targetPoint" />
          </mxGeometry>
        </mxCell>
        <mxCell id="AP_lhbo0x5OcAhG_kdzt-18" style="edgeStyle=orthogonalEdgeStyle;rounded=0;orthogonalLoop=1;jettySize=auto;html=1;exitX=1;exitY=0.5;exitDx=0;exitDy=0;" edge="1" parent="1" source="AP_lhbo0x5OcAhG_kdzt-13">
          <mxGeometry relative="1" as="geometry">
            <mxPoint x="550" y="400" as="targetPoint" />
          </mxGeometry>
        </mxCell>
        <mxCell id="AP_lhbo0x5OcAhG_kdzt-13" value="Blockchain Network" style="swimlane;" vertex="1" parent="1">
          <mxGeometry x="300" y="340" width="160" height="120" as="geometry" />
        </mxCell>
        <mxCell id="AP_lhbo0x5OcAhG_kdzt-15" value="User Terminal" style="rounded=0;whiteSpace=wrap;html=1;" vertex="1" parent="AP_lhbo0x5OcAhG_kdzt-13">
          <mxGeometry x="20" y="30" width="120" height="30" as="geometry" />
        </mxCell>
        <mxCell id="AP_lhbo0x5OcAhG_kdzt-16" value="Hospital" style="rounded=0;whiteSpace=wrap;html=1;" vertex="1" parent="AP_lhbo0x5OcAhG_kdzt-13">
          <mxGeometry x="25" y="80" width="110" height="30" as="geometry" />
        </mxCell>
      </root>
    </mxGraphModel>
  </diagram>
</mxfile>
